<svg xmlns="http://www.w3.org/2000/svg" viewBox="0 0 623.24 117.23"><defs><style>.cls-1{fill:#007bff;}.cls-2{fill:#332d40;}.cls-3{fill:#fff;}</style></defs><title>Asset 6</title><g id="Layer_2" data-name="Layer 2"><g id="Layer_1-2" data-name="Layer 1"><path class="cls-1" d="M289.93,0H390.14a14,14,0,0,1,14.05,14.05V95a14,14,0,0,1-14.05,14H289.93a14,14,0,0,1-14.05-14V14.05A14,14,0,0,1,289.93,0Z"/><path id="main" class="cls-2" d="M37.26,15.19h0A37.63,37.63,0,0,1,50,17.12h0a37.89,37.89,0,0,1,10.86,6.37h0a4.56,4.56,0,0,1,1.55,1.79h0a5.5,5.5,0,0,1,.39,2.17h0a4.11,4.11,0,0,1-1.4,3.19h0a4.76,4.76,0,0,1-3.24,1.25h0a5.28,5.28,0,0,1-3.38-1.25h0A28,28,0,0,0,47,25.76h0a26.72,26.72,0,0,0-9.75-1.49h0a25.65,25.65,0,0,0-13.85,3.95h0A28.62,28.62,0,0,0,13.37,39h0A30.35,30.35,0,0,0,9.65,53.8h0a30.3,30.3,0,0,0,3.72,14.87h0a28.69,28.69,0,0,0,10,10.72h0a25.65,25.65,0,0,0,13.85,4h0Q46.53,83.34,55,77h0a5.59,5.59,0,0,1,3.19-1.16h0a4,4,0,0,1,3,1.31h0a4.86,4.86,0,0,1,1.21,3.42h0a4.91,4.91,0,0,1-1.55,3.58h0a36.72,36.72,0,0,1-23.65,8.39h0A36,36,0,0,1,18.39,87.4h0a36.84,36.84,0,0,1-13.47-14h0A39.75,39.75,0,0,1,0,53.8H0A39.32,39.32,0,0,1,4.92,34.35h0a37.31,37.31,0,0,1,13.47-14h0a35.72,35.72,0,0,1,18.87-5.17ZM99.2,38.36h0a27.09,27.09,0,0,1,13.66,3.43h0a24.61,24.61,0,0,1,9.46,9.5h0a27.8,27.8,0,0,1,3.43,13.91h0A28,28,0,0,1,122.37,79h0A24.37,24.37,0,0,1,113,88.51h0A27.41,27.41,0,0,1,99.2,91.93h0a27.64,27.64,0,0,1-13.8-3.42h0A24.23,24.23,0,0,1,75.94,79h0a28,28,0,0,1-3.38-13.8h0a28.2,28.2,0,0,1,3.38-13.91h0a24.14,24.14,0,0,1,9.46-9.5h0a27.54,27.54,0,0,1,13.8-3.43Zm0,8.69h0a17,17,0,0,0-8.83,2.31h0a16.27,16.27,0,0,0-6.13,6.47h0A19.56,19.56,0,0,0,82,65.2h0a19.24,19.24,0,0,0,2.22,9.31h0a16.26,16.26,0,0,0,6.13,6.42h0a17,17,0,0,0,8.83,2.32h0A17,17,0,0,0,108,80.93h0a16,16,0,0,0,6.09-6.42h0a19.67,19.67,0,0,0,2.17-9.31h0a20,20,0,0,0-2.17-9.37h0A16,16,0,0,0,108,49.36h0a17,17,0,0,0-8.83-2.31Zm88.19-30.89h0a4.68,4.68,0,0,1,3.5,1.35h0a4.85,4.85,0,0,1,1.33,3.57h0v44h0a27.28,27.28,0,0,1-3.46,13.66h0a25.74,25.74,0,0,1-9.36,9.65h0a25.33,25.33,0,0,1-13.21,3.52h0a25.75,25.75,0,0,1-13.29-3.52h0a25.17,25.17,0,0,1-9.42-9.65h0a27.66,27.66,0,0,1-3.41-13.66h0a29.34,29.34,0,0,1,3.17-13.66h0A24.28,24.28,0,0,1,152,41.83h0a22.81,22.81,0,0,1,12.35-3.47h0a22.84,22.84,0,0,1,10.22,2.32h0a23.26,23.26,0,0,1,8,6.46h0V21.08h0a4.76,4.76,0,0,1,1.37-3.57h0a4.7,4.7,0,0,1,3.45-1.35ZM166,83.25h0a16.54,16.54,0,0,0,8.74-2.37h0a16.71,16.71,0,0,0,6.13-6.51h0a19.36,19.36,0,0,0,2.22-9.27h0a19.08,19.08,0,0,0-2.22-9.22h0a16.74,16.74,0,0,0-6.13-6.47h0A16.62,16.62,0,0,0,166,47.05h0a16.62,16.62,0,0,0-8.74,2.36h0a17.06,17.06,0,0,0-6.17,6.47h0a18.67,18.67,0,0,0-2.27,9.22h0a18.94,18.94,0,0,0,2.27,9.27h0a17,17,0,0,0,6.17,6.51h0A16.54,16.54,0,0,0,166,83.25ZM258.9,64.13h0a4,4,0,0,1-1.26,3h0a4.42,4.42,0,0,1-3.18,1.21H217.77a17,17,0,0,0,6.13,10.9h0a19,19,0,0,0,12.41,4.16h0a18.73,18.73,0,0,0,6-1.07h0a18,18,0,0,0,5.17-2.6h0a5,5,0,0,1,3.18-1.06h0a4.18,4.18,0,0,1,2.9,1h0A4.22,4.22,0,0,1,255.33,83h0a3.5,3.5,0,0,1-1.55,2.9h0a26.81,26.81,0,0,1-8.16,4.25h0a29.27,29.27,0,0,1-9.31,1.64h0a29.15,29.15,0,0,1-14.19-3.43h0a24.84,24.84,0,0,1-9.8-9.51h0A27,27,0,0,1,208.8,65h0a28.51,28.51,0,0,1,3.33-13.85h0a24.07,24.07,0,0,1,9.26-9.56h0a26.41,26.41,0,0,1,13.47-3.43h0a24.32,24.32,0,0,1,12.84,3.28h0a21.7,21.7,0,0,1,8.3,9.17h0a30.3,30.3,0,0,1,2.9,13.52Zm-24-17.59h0q-7.05,0-11.44,3.87h0a17.28,17.28,0,0,0-5.55,10.32H250a17.08,17.08,0,0,0-4.83-10.32h0a14.15,14.15,0,0,0-10.33-3.87Z"/><path id="ln" class="cls-3" d="M333.48,80.44h0a3.25,3.25,0,0,1,2.31.86h0a2.86,2.86,0,0,1,.91,2.16h0a2.86,2.86,0,0,1-.91,2.16h0a3.25,3.25,0,0,1-2.31.86H298a3.14,3.14,0,0,1-2.27-.94h0a3.06,3.06,0,0,1-1-2.24h0V26h0a3,3,0,0,1,1-2.24h0A3.1,3.1,0,0,1,298,22.8h0a3.13,3.13,0,0,1,2.31.9h0a3.06,3.06,0,0,1,.91,2.28h0V80.44ZM365.73,42h0A21.52,21.52,0,0,1,376,44.45h0a17.36,17.36,0,0,1,7.12,7h0a22.38,22.38,0,0,1,2.57,11.06V83.24h0a2.84,2.84,0,0,1-.86,2.11h0a2.84,2.84,0,0,1-2.11.86h0a3,3,0,0,1-2.2-.86h0a2.88,2.88,0,0,1-.86-2.11V62.53h0q0-7.2-4-11h0a14.73,14.73,0,0,0-10.48-3.76h0A16.24,16.24,0,0,0,358,49.35h0A12.58,12.58,0,0,0,353,53.6h0a10.38,10.38,0,0,0-1.86,6V83h0a2.91,2.91,0,0,1-.82,2.15h0a2.91,2.91,0,0,1-2.15.82h0a3.06,3.06,0,0,1-2.2-.82h0a2.86,2.86,0,0,1-.86-2.15h0V46.15h0a3,3,0,0,1,.86-2.19h0a3,3,0,0,1,2.2-.87h0a2.83,2.83,0,0,1,2.15.87h0a3,3,0,0,1,.82,2.19v2.24h0a18.88,18.88,0,0,1,6.44-4.66h0a19.79,19.79,0,0,1,8.2-1.69Z"/><path class="cls-2" d="M458.18,93.09A4.06,4.06,0,0,1,454,88.81l.22-68.95a4.21,4.21,0,0,1,1.2-3.07,4.14,4.14,0,0,1,3.06-1.18l19.77.06a25.65,25.65,0,0,1,13,3.32A23.19,23.19,0,0,1,500,28a26.51,26.51,0,0,1,3.12,13.2A25.64,25.64,0,0,1,499.91,54a22.9,22.9,0,0,1-8.88,8.8A25.75,25.75,0,0,1,478,66l-15.51,0-.08,22.92a4.06,4.06,0,0,1-4.26,4.25Zm4.36-35.3,15.52.05a17.32,17.32,0,0,0,8.65-2.11,15.47,15.47,0,0,0,6-5.93,17.29,17.29,0,0,0,2.2-8.67,18.18,18.18,0,0,0-2.14-9,16.14,16.14,0,0,0-6-6.12,16.72,16.72,0,0,0-8.64-2.26l-15.51-.05Z"/><path class="cls-2" d="M535.15,93.84a25.23,25.23,0,0,1-13.42-3.67,26.07,26.07,0,0,1-9.36-9.9A28.57,28.57,0,0,1,509,66.17,27.86,27.86,0,0,1,512.61,52a26.63,26.63,0,0,1,9.87-9.84,28.67,28.67,0,0,1,27.91.09,26.72,26.72,0,0,1,9.75,9.91,28.58,28.58,0,0,1,3.66,14.19L560.43,68a26.35,26.35,0,0,1-3.35,13.18,25,25,0,0,1-9,9.25A24.47,24.47,0,0,1,535.15,93.84Zm1.21-7.54a18.41,18.41,0,0,0,9.84-2.59A19.16,19.16,0,0,0,553,76.54a22,22,0,0,0,.07-20.49,19.52,19.52,0,0,0-6.79-7.21,18.16,18.16,0,0,0-9.83-2.71,18.51,18.51,0,0,0-9.84,2.64,19.86,19.86,0,0,0-7,7.17,21.71,21.71,0,0,0-.06,20.49,19.08,19.08,0,0,0,6.94,7.21A18.68,18.68,0,0,0,536.36,86.3Zm23.2,7.12a4.37,4.37,0,0,1-3.11-1.15,3.93,3.93,0,0,1-1.23-3l.06-16.37,1.9-8.62,6.62,2.1-.08,22.92a4,4,0,0,1-1.19,3A4.1,4.1,0,0,1,559.56,93.42Z"/><path class="cls-2" d="M599.09,91.67a3.67,3.67,0,0,1-3,.29,4.27,4.27,0,0,1-2.26-2.19l-22-45a3.82,3.82,0,0,1-.24-3.07,4.26,4.26,0,0,1,5.2-2.37A4,4,0,0,1,579,41.4l21.49,45.11a4.88,4.88,0,0,1,.53,3A2.83,2.83,0,0,1,599.09,91.67Zm-11.25,25.56a5.39,5.39,0,0,1-2-.5c-2.43-1.14-3.09-2.89-2-5.27l31.56-69.84q1.68-3.46,5.24-1.87c2.43,1,3.12,2.73,2.06,5.17L591,114.66C590.34,116.38,589.28,117.23,587.84,117.23Z"/></g></g></svg>