<svg width="750" height="136" viewBox="0 0 750 136" fill="none" xmlns="http://www.w3.org/2000/svg">
<path d="M333.736 0H446.718C455.46 0 462.558 7.10404 462.558 15.8538V107.146C462.558 115.896 455.46 123 446.718 123H333.736C324.994 123 317.896 115.896 317.896 107.146V15.8538C317.896 7.10404 324.994 0 333.736 0Z" fill="#007BFF"/>
<path d="M48.977 17.1792C54.4914 17.1792 59.2621 17.9054 63.2891 19.3578C67.3161 20.8102 71.3974 23.2067 75.5333 26.5472C76.404 27.2008 76.9844 27.8725 77.2747 28.5624C77.5649 29.2523 77.71 30.0692 77.71 31.0133C77.71 32.4657 77.184 33.6639 76.1319 34.608C75.0798 35.552 73.8644 36.0241 72.4858 36.0241C71.1072 36.0241 69.8375 35.552 68.6765 34.608C65.7016 32.0663 62.7993 30.2326 59.9695 29.107C57.1398 27.9814 53.4756 27.4186 48.977 27.4186C43.3174 27.4186 38.1114 28.9073 33.3588 31.8847C28.6063 34.8622 24.8333 38.9107 22.0398 44.0304C19.2463 49.1501 17.8495 54.7237 17.8495 60.7512C17.8495 66.8512 19.2463 72.443 22.0398 77.5264C24.8333 82.6098 28.6063 86.6402 33.3588 89.6176C38.1114 92.595 43.3174 94.0837 48.977 94.0837C55.9426 94.0837 62.6179 91.6872 69.003 86.8943C70.2365 86.0229 71.4337 85.5872 72.5947 85.5872C73.9733 85.5872 75.1161 86.0774 76.023 87.0577C76.93 88.0381 77.3835 89.3271 77.3835 90.9247C77.3835 92.4498 76.803 93.7932 75.6421 94.9552C67.8058 101.273 58.9174 104.432 48.977 104.432C41.2133 104.432 34.1207 102.508 27.6993 98.6588C21.2779 94.8099 16.217 89.545 12.5165 82.8639C8.81605 76.1829 6.96582 68.812 6.96582 60.7512C6.96582 52.763 8.81605 45.4465 12.5165 38.8018C16.217 32.1571 21.2779 26.8921 27.6993 23.0069C34.1207 19.1218 41.2133 17.1792 48.977 17.1792ZM118.814 43.3224C124.546 43.3224 129.68 44.6114 134.215 47.1894C138.75 49.7674 142.305 53.3439 144.881 57.919C147.457 62.494 148.744 67.7227 148.744 73.6049C148.744 79.4145 147.475 84.6068 144.935 89.1819C142.396 93.7569 138.858 97.3334 134.324 99.9115C129.789 102.489 124.619 103.778 118.814 103.778C113.01 103.778 107.822 102.489 103.25 99.9115C98.6793 97.3334 95.124 93.7569 92.5844 89.1819C90.0449 84.6068 88.7751 79.4145 88.7751 73.6049C88.7751 67.7227 90.0449 62.494 92.5844 57.919C95.124 53.3439 98.6793 49.7674 103.25 47.1894C107.822 44.6114 113.01 43.3224 118.814 43.3224ZM118.814 53.1261C115.114 53.1261 111.794 53.9975 108.856 55.7404C105.917 57.4833 103.613 59.916 101.944 63.0387C100.276 66.1613 99.4412 69.6834 99.4412 73.6049C99.4412 77.5264 100.276 81.0303 101.944 84.1166C103.613 87.203 105.917 89.6176 108.856 91.3605C111.794 93.1033 115.114 93.9748 118.814 93.9748C122.515 93.9748 125.834 93.1033 128.773 91.3605C131.711 89.6176 133.997 87.203 135.63 84.1166C137.262 81.0303 138.078 77.5264 138.078 73.6049C138.078 69.6834 137.262 66.1613 135.63 63.0387C133.997 59.916 131.711 57.4833 128.773 55.7404C125.834 53.9975 122.515 53.1261 118.814 53.1261ZM218.473 18.2685C220.142 18.2685 221.484 18.7768 222.5 19.7935C223.516 20.8102 224.024 22.1537 224.024 23.8239V73.496C224.024 79.1603 222.699 84.2982 220.051 88.9095C217.403 93.5209 213.811 97.1519 209.276 99.8025C204.741 102.453 199.68 103.778 194.093 103.778C188.506 103.778 183.409 102.453 178.802 99.8025C174.194 97.1519 170.584 93.5209 167.972 88.9095C165.36 84.2982 164.054 79.1603 164.054 73.496C164.054 67.8316 165.27 62.6937 167.7 58.0824C170.131 53.471 173.469 49.8582 177.713 47.2438C181.958 44.6295 186.692 43.3224 191.917 43.3224C196.125 43.3224 200.043 44.1938 203.671 45.9367C207.299 47.6796 210.383 50.1123 212.922 53.235V23.8239C212.922 22.1537 213.448 20.8102 214.5 19.7935C215.552 18.7768 216.877 18.2685 218.473 18.2685ZM194.093 93.9748C197.721 93.9748 201.004 93.0852 203.943 91.306C206.882 89.5268 209.185 87.0759 210.854 83.9532C212.523 80.8306 213.357 77.3448 213.357 73.496C213.357 69.6471 212.523 66.1795 210.854 63.0931C209.185 60.0068 206.882 57.574 203.943 55.7948C201.004 54.0157 197.721 53.1261 194.093 53.1261C190.465 53.1261 187.182 54.0157 184.244 55.7948C181.305 57.574 178.983 60.0068 177.278 63.0931C175.573 66.1795 174.72 69.6471 174.72 73.496C174.72 77.3448 175.573 80.8306 177.278 83.9532C178.983 87.0759 181.305 89.5268 184.244 91.306C187.182 93.0852 190.465 93.9748 194.093 93.9748ZM298.867 72.6245C298.867 74.0043 298.396 75.1481 297.452 76.0558C296.509 76.9636 295.312 77.4174 293.861 77.4174H252.503C253.301 82.5008 255.604 86.6038 259.414 89.7265C263.223 92.8492 267.885 94.4105 273.399 94.4105C275.576 94.4105 277.844 94.0111 280.202 93.2123C282.56 92.4134 284.501 91.4331 286.024 90.2712C287.04 89.4723 288.237 89.0729 289.616 89.0729C290.995 89.0729 292.083 89.436 292.881 90.1622C294.187 91.2515 294.84 92.4861 294.84 93.8658C294.84 95.173 294.26 96.2623 293.099 97.1337C290.632 99.0945 287.566 100.692 283.902 101.927C280.238 103.161 276.737 103.778 273.399 103.778C267.45 103.778 262.117 102.489 257.4 99.9115C252.684 97.3334 249.002 93.7569 246.353 89.1819C243.705 84.6068 242.381 79.4145 242.381 73.6049C242.381 67.7953 243.632 62.5848 246.136 57.9734C248.639 53.3621 252.122 49.7674 256.584 47.1894C261.046 44.6114 266.107 43.3224 271.767 43.3224C277.354 43.3224 282.179 44.5569 286.242 47.026C290.305 49.4951 293.425 52.9445 295.602 57.3743C297.779 61.8041 298.867 66.8875 298.867 72.6245ZM271.767 52.6903C266.47 52.6903 262.171 54.1427 258.87 57.0475C255.568 59.9523 253.482 63.8375 252.611 68.703H288.854C288.201 63.8375 286.387 59.9523 283.412 57.0475C280.437 54.1427 276.556 52.6903 271.767 52.6903Z" fill="white"/>
<path d="M381.974 90.9564C383.002 90.9564 383.848 91.2741 384.513 91.9096C385.178 92.545 385.511 93.3468 385.511 94.3151C385.511 95.2834 385.178 96.0852 384.513 96.7206C383.848 97.3561 383.002 97.6738 381.974 97.6738H342.974C342.006 97.6738 341.175 97.3258 340.48 96.6299C339.784 95.9339 339.437 95.1018 339.437 94.1335V30.3188C339.437 29.3505 339.784 28.5184 340.48 27.8225C341.175 27.1265 342.006 26.7786 342.974 26.7786C344.002 26.7786 344.848 27.1114 345.513 27.7771C346.178 28.4428 346.511 29.29 346.511 30.3188V90.9564H381.974ZM419.432 47.4752C423.725 47.4752 427.58 48.383 430.996 50.1985C434.412 52.014 437.088 54.6616 439.023 58.1413C440.957 61.621 441.925 65.7815 441.925 70.6228V94.2243C441.925 95.1926 441.592 96.0096 440.927 96.6752C440.262 97.3409 439.446 97.6738 438.478 97.6738C437.45 97.6738 436.604 97.3409 435.939 96.6752C435.274 96.0096 434.941 95.1926 434.941 94.2243V70.6228C434.941 65.2369 433.445 61.1369 430.452 58.3228C427.459 55.5088 423.543 54.1018 418.706 54.1018C415.743 54.1018 413.068 54.6767 410.68 55.8265C408.291 56.9764 406.402 58.5649 405.011 60.5922C403.62 62.6195 402.925 64.8738 402.925 67.3549V94.2243C402.925 95.2531 402.607 96.0852 401.973 96.7206C401.338 97.3561 400.506 97.6738 399.478 97.6738C398.45 97.6738 397.604 97.3561 396.939 96.7206C396.274 96.0852 395.941 95.2531 395.941 94.2243V51.5601C395.941 50.5313 396.274 49.6841 396.939 49.0184C397.604 48.3527 398.45 48.0199 399.478 48.0199C400.506 48.0199 401.338 48.3527 401.973 49.0184C402.607 49.6841 402.925 50.5313 402.925 51.5601V54.6465C404.92 52.4073 407.339 50.6524 410.181 49.3815C413.023 48.1107 416.106 47.4752 419.432 47.4752Z" fill="white"/>
<path d="M535.24 107C533.48 107 532 106.4 530.8 105.2C529.6 104 529 102.52 529 100.76V19.52C529 17.68 529.6 16.2 530.8 15.08C532 13.88 533.48 13.28 535.24 13.28H559.24C565.24 13.28 570.56 14.6 575.2 17.24C579.84 19.88 583.44 23.56 586 28.28C588.64 32.92 589.96 38.28 589.96 44.36C589.96 50.2 588.64 55.4 586 59.96C583.44 64.52 579.84 68.08 575.2 70.64C570.56 73.2 565.24 74.48 559.24 74.48H541.48V100.76C541.48 102.52 540.88 104 539.68 105.2C538.56 106.4 537.08 107 535.24 107ZM541.48 62.96H559.24C562.92 62.96 566.16 62.16 568.96 60.56C571.76 58.96 573.96 56.76 575.56 53.96C577.16 51.16 577.96 47.96 577.96 44.36C577.96 40.52 577.16 37.16 575.56 34.28C573.96 31.32 571.76 29 568.96 27.32C566.16 25.64 562.92 24.8 559.24 24.8H541.48V62.96ZM627.582 107.48C621.742 107.48 616.502 106.04 611.862 103.16C607.222 100.2 603.542 96.24 600.822 91.28C598.182 86.24 596.862 80.56 596.862 74.24C596.862 67.92 598.302 62.24 601.182 57.2C604.142 52.16 608.102 48.2 613.062 45.32C618.102 42.36 623.742 40.88 629.982 40.88C636.222 40.88 641.822 42.36 646.782 45.32C651.742 48.2 655.662 52.16 658.542 57.2C661.502 62.24 662.982 67.92 662.982 74.24H658.302C658.302 80.56 656.942 86.24 654.222 91.28C651.582 96.24 647.942 100.2 643.302 103.16C638.662 106.04 633.422 107.48 627.582 107.48ZM629.982 96.68C634.062 96.68 637.702 95.72 640.902 93.8C644.102 91.8 646.622 89.12 648.462 85.76C650.302 82.32 651.222 78.48 651.222 74.24C651.222 69.92 650.302 66.08 648.462 62.72C646.622 59.28 644.102 56.6 640.902 54.68C637.702 52.68 634.062 51.68 629.982 51.68C625.982 51.68 622.342 52.68 619.062 54.68C615.862 56.6 613.302 59.28 611.382 62.72C609.542 66.08 608.622 69.92 608.622 74.24C608.622 78.48 609.542 82.32 611.382 85.76C613.302 89.12 615.862 91.8 619.062 93.8C622.342 95.72 625.982 96.68 629.982 96.68ZM656.862 107.12C655.102 107.12 653.622 106.56 652.422 105.44C651.302 104.24 650.742 102.76 650.742 101V82.64L653.022 69.92L662.982 74.24V101C662.982 102.76 662.382 104.24 661.182 105.44C660.062 106.56 658.622 107.12 656.862 107.12ZM692.958 135.8C692.158 135.8 691.198 135.56 690.078 135.08C686.558 133.48 685.598 130.96 687.198 127.52L723.798 44.84C725.398 41.48 727.918 40.52 731.358 41.96C734.958 43.48 735.958 46 734.358 49.52L697.638 132.08C696.678 134.56 695.118 135.8 692.958 135.8ZM707.118 104.36C705.598 105 704.158 105.08 702.798 104.6C701.518 104.04 700.478 103 699.678 101.48L672.198 49.28C671.398 47.76 671.278 46.32 671.838 44.96C672.478 43.52 673.558 42.48 675.078 41.84C676.598 41.2 678.038 41.16 679.398 41.72C680.758 42.2 681.798 43.2 682.518 44.72L708.798 96.92C709.598 98.44 709.878 99.92 709.638 101.36C709.478 102.72 708.638 103.72 707.118 104.36Z" fill="white"/>
</svg>
